<?xml version="1.0" encoding="UTF-8"?>
<svg id="Layer_1" data-name="Layer 1" xmlns="http://www.w3.org/2000/svg" viewBox="0 0 210 71">
  <defs>
    <style>
      .cls-1 {
        fill-rule: evenodd;
      }
    </style>
  </defs>
  <g id="g24">
    <g id="text20">
      <path id="path69" class="cls-1" d="m130.93,30.13v12.94h1.57v-12.94h-1.57Zm11.39,0v12.94h1.56v-6.93c.43-.33.87-.59,1.34-.81s.91-.32,1.34-.32.76.06,1.02.18c.26.11.46.28.6.52.13.21.22.5.27.88.05.37.08.77.08,1.2v5.29h1.56v-6.03c0-1.14-.26-2.01-.79-2.61s-1.29-.91-2.29-.91c-.55,0-1.08.11-1.61.34s-1.03.54-1.51.95v-4.68h-1.56Zm-68.66.33c-2.02,0-3.61.57-4.77,1.72-1.15,1.14-1.73,2.7-1.73,4.68,0,1.08.16,2.03.47,2.84.31.8.75,1.47,1.32,2.01.57.53,1.25.93,2.05,1.2s1.69.4,2.65.4c.75,0,1.52-.11,2.32-.34.8-.23,1.54-.5,2.22-.81v-5.31h-4.95v1.45h3.32v3.04c-.4.17-.86.3-1.4.41-.53.11-1.06.16-1.59.16-1.45,0-2.6-.44-3.44-1.33-.84-.89-1.27-2.14-1.27-3.74,0-1.52.4-2.72,1.21-3.61.81-.89,1.91-1.34,3.29-1.34.62,0,1.16.06,1.65.17.49.11.92.25,1.3.42.32.14.64.33.96.54s.58.39.75.52h.15v-1.95c-.85-.4-1.64-.69-2.38-.86-.73-.17-1.45-.26-2.15-.26Zm7.42.23v12.38h8.16v-1.46h-6.51v-4.6h6.51v-1.46h-6.51v-3.39h6.51v-1.46h-8.16Zm16.76,0v12.38h1.65v-6.06h6.18v6.06h1.65v-12.38h-1.65v4.85h-6.18v-4.85h-1.65Zm37.79.42v2.67h-1.06v1.31h1.06v4.94c0,1.13.25,1.94.74,2.45s1.21.76,2.16.76c.27,0,.58-.02.92-.07.35-.05.67-.11.96-.19v-1.4s-.08,0-.08,0c-.12.05-.32.11-.6.19-.28.07-.54.11-.8.11-.44,0-.76-.05-.98-.15-.21-.11-.38-.27-.5-.49-.13-.24-.21-.49-.23-.76-.02-.28-.03-.66-.03-1.15v-4.23h3.22v-1.31h-3.22v-2.67h-1.57Zm-21.25,2.41c-1.35,0-2.44.45-3.28,1.34-.83.89-1.24,2.1-1.24,3.62s.43,2.72,1.3,3.56c.86.83,2.07,1.25,3.61,1.25.6,0,1.18-.07,1.73-.22.55-.15,1.09-.34,1.61-.56v-1.7h-.08c-.27.24-.73.49-1.37.75-.64.25-1.27.37-1.9.37-.48,0-.91-.07-1.31-.2-.39-.13-.74-.33-1.02-.6-.3-.27-.53-.62-.71-1.04-.17-.43-.26-.93-.26-1.5h6.84v-.85c0-1.35-.34-2.39-1.02-3.12-.68-.73-1.64-1.1-2.89-1.1Zm68.98,0c-1.35,0-2.44.45-3.28,1.34-.83.89-1.24,2.1-1.24,3.62s.43,2.72,1.3,3.56c.86.83,2.07,1.25,3.61,1.25.6,0,1.18-.07,1.73-.22.55-.15,1.09-.34,1.61-.56v-1.7h-.08c-.27.24-.73.49-1.37.75-.64.25-1.27.37-1.9.37-.48,0-.91-.07-1.31-.2-.39-.13-.74-.33-1.02-.6-.3-.27-.53-.62-.71-1.04-.17-.43-.26-.93-.26-1.5h6.84v-.85c0-1.35-.34-2.39-1.02-3.12-.68-.73-1.64-1.1-2.89-1.1h0Zm-59.52.03c-.56,0-1.13.05-1.7.15-.58.1-1.02.19-1.32.28v1.59h.08c.54-.21,1.06-.36,1.57-.47.5-.11.96-.17,1.37-.17.34,0,.66.02.97.07.31.04.58.13.8.26.23.13.41.32.53.55.13.23.19.53.19.88v.24c-.91.04-1.76.11-2.55.2-.79.09-1.47.26-2.04.51-.56.25-.99.59-1.3,1.03-.3.43-.45,1-.45,1.7,0,.86.29,1.57.87,2.12.58.55,1.29.83,2.13.83.45,0,.85-.04,1.19-.13.34-.08.64-.19.9-.32.22-.1.45-.23.68-.4.24-.17.43-.3.57-.4v.99h1.56v-6.3c0-.6-.09-1.1-.28-1.5s-.45-.74-.8-.99c-.35-.26-.78-.44-1.26-.55-.48-.11-1.05-.17-1.71-.17h0Zm41.31,0c-.56,0-1.13.05-1.7.15-.58.1-1.02.19-1.32.28v1.59h.08c.54-.21,1.06-.36,1.56-.47.5-.11.96-.17,1.37-.17.34,0,.66.02.97.07.31.04.58.13.8.26.23.13.41.32.53.55.13.23.19.53.19.88v.24c-.91.04-1.76.11-2.55.2s-1.47.26-2.04.51c-.56.25-.99.59-1.3,1.03-.3.43-.45,1-.45,1.7,0,.86.29,1.57.87,2.12.58.55,1.29.83,2.13.83.45,0,.85-.04,1.19-.13.34-.08.64-.19.9-.32.22-.1.45-.23.68-.4.24-.17.43-.3.57-.4v.99h1.56v-6.3c0-.6-.09-1.1-.28-1.5s-.45-.74-.8-.99c-.35-.26-.78-.44-1.26-.55-.48-.11-1.05-.17-1.71-.17h0Zm-8.16,0c-1.37,0-2.47.43-3.31,1.3-.83.86-1.25,2.06-1.25,3.58,0,.81.11,1.53.33,2.14s.54,1.11.94,1.51c.4.4.88.7,1.44.9.56.19,1.18.29,1.85.29.53,0,1.02-.07,1.49-.21.47-.14.97-.33,1.49-.58v-1.72h-.08c-.12.09-.27.21-.47.34-.2.13-.41.25-.64.37-.26.13-.55.24-.88.32s-.65.13-.96.13c-.91,0-1.61-.3-2.12-.9-.5-.6-.75-1.47-.75-2.59s.25-2.03.76-2.62c.52-.6,1.22-.9,2.1-.9.48,0,.98.1,1.48.3.51.2,1,.48,1.48.86h.08v-1.74c-.43-.22-.9-.4-1.41-.55-.51-.15-1.03-.22-1.56-.22h0Zm15.23.21v9.29h1.56v-6.59c.42-.34.85-.61,1.3-.82.45-.22.91-.33,1.4-.33.3,0,.56.01.77.04.22.02.45.06.68.12h.08v-1.6c-.24-.04-.43-.06-.55-.08-.12-.02-.32-.03-.59-.03-.49,0-.98.11-1.45.32-.47.21-1.02.56-1.64,1.06v-1.37h-1.56Zm-57.92,1.03c.83,0,1.45.22,1.85.67.41.45.62,1.08.62,1.9h-5.32c.07-.73.35-1.34.84-1.84.5-.49,1.17-.74,2-.74Zm68.98,0c.83,0,1.45.22,1.86.67.41.45.62,1.08.62,1.9h-5.32c.07-.73.35-1.34.84-1.84.5-.49,1.17-.74,2-.74Zm-56.95,3.38v2.59c-.39.3-.81.56-1.26.77-.45.21-.96.32-1.51.32-.66,0-1.15-.13-1.47-.4-.32-.27-.48-.67-.48-1.2,0-.47.14-.84.42-1.11.28-.27.64-.47,1.09-.6.38-.11.89-.19,1.53-.24.65-.06,1.21-.1,1.69-.12Zm41.31,0v2.59c-.39.3-.81.56-1.26.77-.45.21-.96.32-1.5.32-.66,0-1.15-.13-1.47-.4-.32-.27-.48-.67-.48-1.2,0-.47.14-.84.42-1.11.28-.27.64-.47,1.09-.6.38-.11.89-.19,1.53-.24.65-.06,1.21-.1,1.69-.12Z"/>
    </g>
    <path id="path22" class="cls-1" d="m57.07,35.5c0-10.43-8.49-18.92-18.92-18.92s-18.92,8.49-18.92,18.92,8.49,18.92,18.92,18.92,18.92-8.45,18.92-18.92Zm-.9,0c0,9.96-8.06,18.02-18.02,18.02-9.96,0-18.03-8.06-18.03-18.02s8.07-18.03,18.03-18.03,18.02,8.12,18.02,18.03Zm-1.15,0c0-5.98-3.05-12.17-9.59-14.15-1.36-.42-2.5-.68-3.83-.68-3.03,0-3.14,1.73-4.55,1.73-.78,0-1.31-.57-1.31-1.25,0-1.2,1.42-2.15,3.67-2.15,2.1,0,3.72.53,4.03.67l.05-.15c-.57-.22-2.56-.9-5.33-.9-6.04,0-12.17,3.1-14.15,9.59-.42,1.36-.69,2.52-.69,3.83,0,3.05,1.73,3.19,1.73,4.61.02.68-.52,1.25-1.21,1.27-.01,0-.03,0-.04,0-1.2,0-2.15-1.38-2.15-3.68,0-2.09.53-3.72.62-4.03l-.15-.05c-.17.63-.85,2.58-.85,5.35,0,6.08,3.1,12.21,9.59,14.2,1.37.42,2.52.67,3.83.67,3.05,0,3.14-1.78,4.56-1.78.74,0,1.32.58,1.32,1.31,0,1.16-1.38,2.1-3.68,2.1-2.09,0-3.77-.53-4.03-.63l-.05.16c.58.25,2.58.84,5.35.84,6.03,0,12.21-3.05,14.15-9.59.42-1.3.67-2.5.67-3.77,0-3.08-1.73-3.2-1.73-4.61,0-.78.53-1.31,1.25-1.31,1.21,0,2.16,1.42,2.16,3.72,0,2.05-.53,3.67-.63,4.03l.16.05c.2-.63.83-2.58.83-5.4Zm-6.35,5.03c0,2.36-2.03,4.83-5.03,4.83-3.61,0-5.45-3.05-5.45-5.77,0-3.83,2.61-5.45,3.72-6.03-.22-.17-.4-.39-.53-.63-1.27.89-2.41,1.68-4.83,3.05-.11,1.67-.25,3.5-.68,4.77-.89,2.67-2.72,4.61-5.13,4.61-2.03,0-3.03-1.47-3.03-3.05,0-1.15.67-2.62,1.89-3.72,1.52-1.37,3.2-2.2,5.5-3.41.05-.31.11-.62.16-1-.58.53-1.41.74-2.1.74-1.1,0-2-.95-2.2-1.94-1.47-.11-2.58-1.16-2.63-2.83,0-1.2.47-2.25,1.27-2.25.31,0,.42.25.42.47,0,.2-.27.89-.27,1.56s.32,1.58,1.16,1.58c0-2.72,2-6.24,4.35-6.24,1.56,0,1.78,1.16,1.78,1.68,0,2.47-2.46,5.19-4.46,5.86.05.22.27.8.9.8.78,0,1.73-.74,2.2-1.32.2-1.09,1-2.66,2.05-2.66.42,0,.62.31.62.68,0,.78-.83,1.78-1.47,2.45-.1.52-.15,1.05-.15,1.58,1.83-1.1,2.78-1.67,4.13-2.67-.1-.37-.1-.8-.1-1.21,0-2.45,1.63-5.19,3.77-5.19,1.22,0,1.83.85,1.83,1.8,0,1.78-1.53,3.34-3.66,4.98.17.42.42.78.83,1,.05-.1.74-.22,1.31-.22.63,0,1.52.17,1.52.8,0,.73-1,.89-1.78.89-.42.05-1.1-.11-1.1-.11-1.15.31-3.35,1.63-3.35,4.98,0,2.26,1.42,4.35,3.63,4.35,1.67,0,3.03-1.25,3.08-3.2,0-1.25-.53-2.58-1.78-2.58-.63,0-1.2.47-1.2,1.16-.05,1.05.73,1.16.73,1.83,0,.47-.36.69-.73.69-1.05,0-1.85-1.05-1.85-2.36,0-1.58,1.37-2.88,3.15-2.88,2.31-.03,3.5,1.97,3.5,4.12Zm-3.86-13.21c0-.25-.05-.58-.38-.58-.78,0-2.03,1.68-2.03,3.83,1.56-1.37,2.41-2.52,2.41-3.25Zm-9.28-.22c0-.25-.15-.36-.37-.36-1.1,0-2.66,2.88-2.66,4.61,1.73-.95,3.03-3.08,3.03-4.25h0Zm-.62,9.81c-2.36,1.15-5.35,3.2-5.35,5.45,0,.83.42,1.36,1.2,1.36,2.3,0,3.72-3.66,4.15-6.81h0Z"/>
  </g>
</svg>